<?xml version="1.0" encoding="UTF-8"?>
<svg width="27px" height="27px" viewBox="0 0 27 27" version="1.1" xmlns="http://www.w3.org/2000/svg" xmlns:xlink="http://www.w3.org/1999/xlink">
    <title>Shape</title>
    <g id="Symbols" stroke="none" stroke-width="1" fill="none" fill-rule="evenodd">
        <path d="M26.73,18.1501992 L26.73,1.10781911 C26.7303316,0.891928021 26.6474191,0.684252117 26.4985714,0.528146321 C26.3408606,0.372362688 26.1286104,0.284527243 25.9071429,0.283395587 L8.92285714,0.283395587 L0.784285714,0 L0.642857143,0 C0.287816947,0 0,0.288364832 0,0.64408088 L0.282857143,8.95272423 L0.282857143,25.9306962 C0.237837178,26.0819852 0.237837178,26.2431454 0.282857143,26.3944344 C0.345866117,26.5503894 0.47207534,26.6721555 0.63,26.7293565 C0.751960796,26.7634185 0.880896347,26.7634185 1.00285714,26.7293565 L18.0385714,26.7293565 L26.1771429,26.9999369 L26.3571429,26.9999369 C26.5314675,27.0024032 26.6990457,26.932446 26.82,26.8066462 C26.9206075,26.6959358 26.983622,26.556138 27,26.4073161 L26.73,18.1501992 Z M25.38,24.2560859 L22.59,21.4736565 L22.59,15.9216793 L25.1614286,18.4980029 L25.38,24.2560859 Z M20.9057143,14.8138602 L20.9057143,21.0743264 L14.6442857,21.0743264 L14.3357143,14.5047014 L20.9057143,14.8138602 Z M6.06857143,12.4178794 L6.06857143,6.13164997 L12.3171429,6.13164997 L12.6128571,12.7012749 L6.06857143,12.4178794 Z M20.9185714,6.14453159 L20.9185714,13.0877235 L14.2714286,12.7914463 L13.9757143,6.14453159 L20.9185714,6.14453159 Z M6.06857143,21.0227999 L6.06857143,14.0538448 L12.69,14.3630036 L12.9985714,21.0227999 L6.06857143,21.0227999 Z M25.0714286,1.93224264 L25.0714286,16.102022 L22.5642857,13.5256985 L22.5642857,5.30722645 C22.551311,4.87658101 22.2095595,4.5285657 21.78,4.50856616 L13.4228571,4.50856616 L10.9285714,1.93224264 L25.0714286,1.93224264 Z M5.58,4.50856616 L2.81571429,1.71325514 L8.55,1.93224264 L11.1214286,4.50856616 L5.58,4.50856616 Z M4.42285714,5.66791174 L4.42285714,11.2070073 L1.85142857,8.63068379 L1.65857143,2.87260072 L4.42285714,5.66791174 Z M1.92857143,25.2093256 L1.92857143,10.949375 L4.5,13.5256985 L4.5,21.7699337 C4.46178395,21.9002904 4.46178395,22.0389072 4.5,22.1692639 C4.64502054,22.4378037 4.92820716,22.6020659 5.23285714,22.5943573 L13.5,22.5943573 L16.0714286,25.1706808 L1.92857143,25.2093256 Z M21.42,22.6330021 L24.1971429,25.4283131 L18.4628571,25.2222072 L15.8914286,22.6458837 L21.42,22.6330021 Z" id="Shape" fill="#3CFFD5" fill-rule="nonzero"></path>
    </g>
</svg>